inDegrees=no
num_controls=7
num_derivatives=13
num_iterations=244
num_multipliers=7
num_parameters=0
num_slacks=7
num_states=26
objective=5.803164
objective_accelerations=0.492192
objective_balance=0.048514
objective_effort=0.456908
objective_height=4.687449
objective_ligament=0.118101
solver_duration=2498.677307
status=Solve_Succeeded
success=true
DataType=double
version=3
OpenSimVersion=4.4-2022-07-23-0e9fedc
endheader
time	/jointset/ground_pelvis/pelvis_tilt/value	/jointset/ground_pelvis/pelvis_tx/value	/jointset/ground_pelvis/pelvis_ty/value	/jointset/hip_l/hip_flexion_l/value	/jointset/hip_l/hip_adduction_l/value	/jointset/hip_l/hip_rotation_l/value	/jointset/back/lumbar_extension/value	/jointset/patellofemoral_l/patellar_flexion_l/value	/jointset/knee_l/knee_flexion_l/value	/jointset/knee_l/knee_adduction_l/value	/jointset/knee_l/knee_rotation_l/value	/jointset/ankle_l/ankle_angle_l/value	/jointset/subtalar_l/subtalar_angle_l/value	/jointset/ground_pelvis/pelvis_tilt/speed	/jointset/ground_pelvis/pelvis_tx/speed	/jointset/ground_pelvis/pelvis_ty/speed	/jointset/hip_l/hip_flexion_l/speed	/jointset/hip_l/hip_adduction_l/speed	/jointset/hip_l/hip_rotation_l/speed	/jointset/back/lumbar_extension/speed	/jointset/patellofemoral_l/patellar_flexion_l/speed	/jointset/knee_l/knee_flexion_l/speed	/jointset/knee_l/knee_adduction_l/speed	/jointset/knee_l/knee_rotation_l/speed	/jointset/ankle_l/ankle_angle_l/speed	/jointset/subtalar_l/subtalar_angle_l/speed	/forceset/tau_hip_flexion_l	/forceset/tau_hip_adduction_l	/forceset/tau_hip_rotation_l	/forceset/tau_knee_flexion_l	/forceset/tau_ankle_angle_l	/forceset/tau_subtalar_angle_l	/forceset/tau_lumbar_extension	lambda_cid13_p0	lambda_cid13_p1	lambda_cid13_p2	lambda_cid13_p3	lambda_cid13_p4	lambda_cid13_p5	lambda_cid14_p0	/jointset/ground_pelvis/pelvis_tilt/accel	/jointset/ground_pelvis/pelvis_tx/accel	/jointset/ground_pelvis/pelvis_ty/accel	/jointset/hip_l/hip_flexion_l/accel	/jointset/hip_l/hip_adduction_l/accel	/jointset/hip_l/hip_rotation_l/accel	/jointset/back/lumbar_extension/accel	/jointset/patellofemoral_l/patellar_flexion_l/accel	/jointset/knee_l/knee_flexion_l/accel	/jointset/knee_l/knee_adduction_l/accel	/jointset/knee_l/knee_rotation_l/accel	/jointset/ankle_l/ankle_angle_l/accel	/jointset/subtalar_l/subtalar_angle_l/accel	gamma_cid13_p0	gamma_cid13_p1	gamma_cid13_p2	gamma_cid13_p3	gamma_cid13_p4	gamma_cid13_p5	gamma_cid14_p0
0.5	-0.07928058336977768	-0.03065016306440283	0.8191479906965009	0.8704958887051024	-0.3284869793666914	-0.09296223872074691	-0.7833817046259091	0.8827937459392698	0.8827937459391405	-0.104120779284461	-0.1745263722161048	0.1538636145172112	0.01670774513116417	-0.08872731443234783	-0.1396686391552984	-0.36882807118396	1.433152085442796	-0.04057474546014282	0.5320214539164901	-0.838182201086308	1.680474862155811	1.680474862155856	0.1366334348952754	8.912564909930218e-05	0.4495640978795094	0.1105400560184369	-0.2590922549548077	0.0208773765805586	-0.004675024718389733	-0.2388160802593854	0.0680167767286967	0.04993135945979888	0.3195720010319533	-22.03143995303106	-19.95508915242879	5.157133789880381	-7.265647594154224	-702.0521995281412	-79.75737693030295	-11.29813630400335	0.2311643634083558	0.600539017980539	-0.1652552762297418	-1.429453737347798	0.2790012368754166	-0.4520440302950819	1.789862548785871	-1.352067781274136	-1.352067781274143	-0.2756664867330337	-0.001189840026452643	-0.2217129443622239	0.2921338344321927	-2.178212523684058e-07	-1.962378149859057e-07	1.248244262222586e-06	1.022860953006163e-07	-2.357818738249613e-07	-2.016263995305632e-07	-1.814889532875986e-07
0.51	-0.08015621416254702	-0.03201678463530738	0.8154522788773186	0.8847537381208103	-0.328879503334042	-0.08766395662424208	-0.7916731232188129	0.8995281908722396	0.899528190872126	-0.1027704940180508	-0.1745254569004507	0.1583471303060359	0.01782657621184669	-0.08638662845144494	-0.1336528610438632	-0.3702283340581561	1.418212531635993	-0.03793668985343689	0.5275704877762666	-0.8200138255052121	1.666166168515138	1.666166168515155	0.1334155372735914	8.935710297745156e-05	0.4470662789434747	0.1131982318778188	-0.2647694325151304	0.02127043988006443	-0.004843635229252681	-0.2422872424007607	0.06669092199465411	0.05010007232729853	0.3254122519662931	-22.68610691459528	-19.8760508792225	5.101489470904438	-7.065249082977236	-706.1969952974891	-79.67608267980019	-10.62951682731279	0.2373325099841668	0.6025405943184291	-0.1145632475539567	-1.557022741865724	0.2550415296339912	-0.4514612223723575	1.843478861269019	-1.507428447934218	-1.50742844793822	-0.3460566328105457	0.0001844769638394413	-0.2747345752345898	0.2483478731402405	-2.038444562636185e-07	-1.218258029900211e-07	1.223349301299235e-06	1.063803301354837e-07	-2.170946226520828e-07	-1.556097071975429e-07	-1.703378167031625e-07
0.52	-0.08100807573660138	-0.03332315974777875	0.811745134138486	0.8988560286905378	-0.3292458799838982	-0.08241215185245737	-0.7997802272962101	0.9161121172103092	0.9161121172102153	-0.1014526287744402	-0.1745246283024865	0.1628034842640973	0.01897112673341369	-0.08397347068840827	-0.127619347468663	-0.3711146551140258	1.402040316248433	-0.03534528196410117	0.5227259889765864	-0.8013192979842132	1.650371143175648	1.650371143175638	0.1301494303349309	7.17821116116249e-05	0.4441317317270158	0.1156839441951607	-0.2704466100755035	0.02166350317955509	-0.005012245739986685	-0.2457584045421587	0.06536506726060495	0.05026878519477621	0.3312525029005949	-23.3429259614681	-19.79728854156714	5.046635943368462	-6.906300099539997	-710.4063137589275	-79.64243336182547	-9.9603172381488	0.2456587198351458	0.6040861107335821	-0.06246691256444965	-1.675986053499018	0.2696716934013456	-0.5307505621864691	1.895092936766534	-1.649334121037381	-1.649334121037381	-0.2853083501283552	-0.004751129075299371	-0.3090586004470465	0.2576411260242013	-1.895180246133831e-07	-7.252902308322323e-08	1.181376851703657e-06	1.062469880611764e-07	-1.986606110374244e-07	-1.161126496117898e-07	-1.599482827053863e-07
0.53	-0.08183546967244244	-0.0345691867259136	0.8080316890445363	0.912790679897219	-0.3295864909159769	-0.07721068381225027	-0.8076979081535797	0.9325309105456429	0.9325309105455967	-0.1001674582549513	-0.174523963492956	0.1672284038319615	0.02013978887370646	-0.08149329642491397	-0.1215902995553501	-0.3714885418559131	1.38469989925468	-0.0327838419657388	0.5175051877221187	-0.7821466516814748	1.633157519682132	1.633157519682112	0.1268844436572784	5.861180874428221e-05	0.4407842409305012	0.1180210369236603	-0.2759201511153281	0.02204042335444864	-0.005137621627353576	-0.2491506883713222	0.0638228585422852	0.050306452134635	0.3368387212072008	-24.06732483998342	-19.64331869473057	4.972410502376925	-6.595150137183673	-714.4436729717781	-79.49705154916442	-9.292511080004035	0.2509814141308958	0.6016976575398149	-0.01201407759912675	-1.791597184042321	0.2481720911467575	-0.5272539980552774	1.938883748341663	-1.791846196729648	-1.79184619673092	-0.3471125707847574	0.0002414624849028176	-0.3577821874482623	0.2174978293694101	-1.775814971924834e-07	-4.796424724368679e-08	1.136538760053755e-06	1.034029639248e-07	-1.835641979422134e-07	-8.652164458602799e-08	-1.52016879266149e-07
0.54	-0.08263770493874743	-0.0357550465197333	0.8043170721786473	0.9265462214016085	-0.3299017290604411	-0.07206332560280374	-0.8154217558936623	0.948770673699402	0.9487706736994012	-0.09891494135108615	-0.1745234620977728	0.1716178109182207	0.02133097283790638	-0.07894173678043476	-0.1155859106056317	-0.3713490095018168	1.366218375791775	-0.03027072444365504	0.5119040228285159	-0.7625526745261699	1.614565106859776	1.614565106859747	0.1236187072115855	3.909924097080053e-05	0.437029235406199	0.1201883089764208	-0.2813936921552001	0.02241734352932485	-0.00526299751466363	-0.252542972200502	0.0622806498239603	0.05034411907447044	0.3424249395137706	-24.79468672326977	-19.48911740341974	4.898477520425272	-6.32123878623762	-718.5536401186894	-79.39610907143769	-8.62789644527666	0.2599357960321433	0.599154318014702	0.04021690663231264	-1.904207347329558	0.2600071981455935	-0.6068232900135767	1.979359107279875	-1.925091986805363	-1.92509198680538	-0.2854583037364535	-0.006019582056575937	-0.3905615460045642	0.2236769908763769	-1.682891191316996e-07	-5.076253973388674e-08	1.088530170811836e-06	9.755988729421934e-08	-1.721604470387314e-07	-6.789052749898007e-08	-1.468051096363592e-07
